<svg width="32" height="32" viewBox="0 0 32 32" fill="none" xmlns="http://www.w3.org/2000/svg">
<path d="M22.6666 1.66663C26.9013 1.66663 30.3333 5.09863 30.3333 9.33329C30.3333 13.568 26.9013 17 22.6666 17C18.432 17 15 13.568 15 9.33329C15 5.09863 18.432 1.66663 22.6666 1.66663ZM13.0826 7.99863C13.0853 8.55063 12.64 9.00129 12.088 9.00396C10.2013 9.01463 8.81596 9.05996 7.73196 9.23063C6.66796 9.39863 5.97329 9.67729 5.42929 10.1066C5.20663 10.2826 5.00263 10.4746 4.81729 10.6826C4.30129 11.2613 3.99596 12.02 3.83463 13.2906C3.81863 13.412 3.80396 13.5373 3.79196 13.6666H13.3333C13.8853 13.6666 14.3333 14.1146 14.3333 14.6666C14.3333 15.2186 13.8853 15.6666 13.3333 15.6666H3.68663C3.66663 16.528 3.66663 17.5173 3.66663 18.6666C3.66663 21.052 3.66796 22.7453 3.83463 24.044C3.99596 25.3146 4.30129 26.0733 4.81729 26.6506C5.00263 26.8586 5.20663 27.052 5.42929 27.228C6.05863 27.724 6.89063 28.02 8.26529 28.1746C9.65863 28.332 11.4706 28.3333 14 28.3333H18C20.5293 28.3333 22.3426 28.332 23.7346 28.1746C25.1093 28.02 25.9413 27.724 26.5706 27.228C26.7933 27.052 26.9973 26.8586 27.1826 26.6506C27.6986 26.0733 28.004 25.3146 28.1653 24.044C28.332 22.7453 28.3333 21.052 28.3333 18.6666V18.3173V18.3093C28.3333 18.088 28.3333 17.8733 28.3333 17.6626C28.332 17.1106 28.7786 16.6626 29.332 16.6613C29.884 16.66 30.332 17.1066 30.3333 17.66C30.3333 17.8746 30.3333 18.096 30.3333 18.3213V18.6666V18.7373C30.3333 21.036 30.3333 22.8573 30.1493 24.2973C29.9613 25.7786 29.564 26.9853 28.676 27.9826C28.412 28.2773 28.1226 28.5506 27.8093 28.7973C26.7653 29.6226 25.5093 29.9866 23.9586 30.1626C22.4413 30.3333 20.516 30.3333 18.0626 30.3333H13.9373C11.484 30.3333 9.55863 30.3333 8.04129 30.1626C6.49063 29.9866 5.23463 29.6226 4.19063 28.7973C3.87729 28.5506 3.58796 28.2773 3.32396 27.9826C2.43596 26.9853 2.03863 25.7786 1.85063 24.2973C1.66663 22.8573 1.66663 21.036 1.66663 18.7386V18.596C1.66663 16.2973 1.66663 14.4773 1.85063 13.0373C2.03863 11.556 2.43596 10.348 3.32396 9.35196C3.58796 9.05596 3.87729 8.78396 4.19063 8.53729C5.09196 7.82529 6.15063 7.45596 7.42129 7.25463C8.67196 7.05729 10.2 7.01463 12.076 7.00396C12.6293 7.00129 13.0786 7.44529 13.0826 7.99863ZM17 9.33329C17 12.4626 19.5373 15 22.6666 15C25.796 15 28.3333 12.4626 28.3333 9.33329C28.3333 6.20396 25.796 3.66663 22.6666 3.66663C19.5373 3.66663 17 6.20396 17 9.33329ZM21.2813 12.332C20.9213 12.3133 20.5986 12.1026 20.4386 11.78C20.1493 11.2013 19.912 11.028 19.8453 10.988C19.3666 10.9133 19 10.5 19 9.99996C19 9.44796 19.448 8.99996 20 8.99996C20.2 8.99996 20.7306 9.05996 21.3213 9.61329C22.184 8.47863 23.588 6.89063 25 6.39063C25.5213 6.20663 26.092 6.47863 26.276 6.99996C26.46 7.52129 26.188 8.09196 25.6666 8.27596C24.532 8.67729 22.924 10.6933 22.1773 11.8693C21.9933 12.1586 21.6746 12.3333 21.3333 12.3333L21.2813 12.332ZM18.3333 24C18.3333 23.448 18.7813 23 19.3333 23H24C24.552 23 25 23.448 25 24C25 24.552 24.552 25 24 25H19.3333C18.7813 25 18.3333 24.552 18.3333 24ZM13.3333 23H15.3333C15.8853 23 16.3333 23.448 16.3333 24C16.3333 24.552 15.8853 25 15.3333 25H13.3333C12.7813 25 12.3333 24.552 12.3333 24C12.3333 23.448 12.7813 23 13.3333 23Z" fill="#192A3E"/>
</svg>
