<svg width="32" height="32" viewBox="0 0 32 32" fill="none" xmlns="http://www.w3.org/2000/svg">
<path d="M16 3.66663C10.532 3.66663 6.33332 7.51863 6.33332 12V12.3546C6.50532 12.332 6.68932 12.3266 6.88532 12.3426C7.36132 12.3813 7.81732 12.5893 8.30132 12.8106L8.41332 12.8626L8.49999 12.9013C8.86399 13.0666 9.21999 13.228 9.50399 13.4746C10.3347 14.1973 10.3333 15.1506 10.3333 15.7013V15.74V21.5946V21.632C10.3333 22.1826 10.3347 23.136 9.50399 23.8586C9.21999 24.1053 8.86399 24.2666 8.50132 24.432L8.41332 24.472L8.30132 24.5226L8.29999 24.524C7.81599 24.7453 7.36132 24.9533 6.88532 24.992C5.49199 25.104 4.71065 24.1533 4.25199 23.5946L4.21465 23.5493C4.09865 23.408 3.95599 23.2426 3.80132 23.064C3.51865 22.736 3.19732 22.3653 2.93332 22.0186C2.49599 21.4466 2.05865 20.7613 1.84132 19.9653C1.60799 19.1133 1.60799 18.22 1.84132 17.368C1.99865 16.7906 2.28399 16.2813 2.66132 15.7453C3.02665 15.228 3.51732 14.632 4.12532 13.8933L4.12665 13.892L4.15065 13.8613C4.17599 13.832 4.20132 13.8 4.22799 13.7666C4.26132 13.7253 4.29732 13.6826 4.33332 13.6386V12C4.33332 6.17196 9.68665 1.66663 16 1.66663C22.3133 1.66663 27.6667 6.17196 27.6667 12V13.632C27.6933 13.6666 27.72 13.6986 27.744 13.7293L27.748 13.7346C27.792 13.7893 27.828 13.8346 27.8493 13.8613L27.8733 13.892C28.4813 14.6306 28.9733 15.2266 29.3387 15.7453C29.716 16.28 30.0013 16.7906 30.1587 17.368C30.392 18.22 30.392 19.1133 30.1587 19.9653C29.9413 20.7613 29.504 21.4466 29.0667 22.0186C28.8027 22.364 28.4813 22.736 28.1987 23.064C28.044 23.2426 27.9013 23.408 27.7853 23.5493L27.708 23.6426C27.692 23.6626 27.676 23.6813 27.66 23.7013C27.6093 25.1826 27.244 26.4 26.572 27.3706C25.8453 28.4226 24.824 29.092 23.684 29.52C21.5133 30.3333 18.696 30.3333 16.1253 30.3333H16C15.448 30.3333 15 29.8853 15 29.3333C15 28.7813 15.448 28.3333 16 28.3333C18.7293 28.3333 21.1893 28.32 22.9827 27.6466C23.8427 27.324 24.488 26.8693 24.928 26.2333C25.156 25.9026 25.3467 25.4986 25.4773 24.996C25.356 25.0026 25.236 25.0013 25.1147 24.9906C24.6387 24.952 24.184 24.744 23.7 24.524L23.6987 24.5226L23.5867 24.472L23.5 24.432C23.0253 24.22 22.1293 23.82 21.788 22.8106C21.6653 22.444 21.6653 22.0506 21.6667 21.6853V21.5933V15.7386V15.648C21.6653 15.2826 21.6653 14.8893 21.788 14.5226C22.1293 13.5133 23.0253 13.1133 23.5 12.9013C23.5307 12.8866 23.56 12.8746 23.5867 12.8613L23.6987 12.8106C24.1827 12.5893 24.6387 12.3813 25.1147 12.3426C25.3 12.3266 25.484 12.3306 25.6667 12.3533V12C25.6667 7.51863 21.468 3.66663 16 3.66663ZM25.8427 14.568C25.7613 14.4813 25.7053 14.4386 25.668 14.4173C25.5573 14.356 25.42 14.324 25.276 14.336C25.1973 14.3426 25.0867 14.376 24.416 14.6813C24.1227 14.8146 23.9587 14.892 23.832 14.984C23.7347 15.0546 23.704 15.104 23.684 15.1613C23.6827 15.1693 23.6773 15.1946 23.6733 15.2573C23.6667 15.36 23.6667 15.4973 23.6667 15.7386V21.5933C23.6667 21.836 23.6667 21.9733 23.6733 22.0773C23.6773 22.1386 23.6827 22.164 23.684 22.172C23.704 22.2306 23.7347 22.2786 23.832 22.3493C23.9587 22.4413 24.1227 22.5186 24.416 22.652C25.0867 22.9573 25.1973 22.9906 25.276 22.9973C25.42 23.0093 25.5573 22.9773 25.668 22.916C25.7187 22.8866 25.7867 22.8306 26.2413 22.2786C26.4213 22.0586 26.5907 21.864 26.7533 21.676L26.76 21.6693L26.764 21.664C27.008 21.3826 27.2387 21.116 27.4773 20.804C27.8507 20.3146 28.1107 19.8706 28.2293 19.4386C28.368 18.9306 28.368 18.4026 28.2293 17.8946C28.1573 17.6306 28.0133 17.3373 27.704 16.8973C27.3867 16.448 26.944 15.908 26.3053 15.1333C26.2133 15.0226 26.1533 14.9453 26.1013 14.8773C26.064 14.828 26.0293 14.7853 25.9907 14.7373C25.936 14.6866 25.8853 14.6293 25.8427 14.568ZM6.32132 14.4586C6.14265 14.592 5.97599 14.792 5.69465 15.1333C5.05599 15.9093 4.61332 16.448 4.29599 16.8973C3.98665 17.3373 3.84265 17.6306 3.77065 17.8946C3.63199 18.4026 3.63199 18.9306 3.77065 19.4386C3.88932 19.8706 4.14932 20.316 4.52265 20.804C4.76265 21.1173 4.99465 21.3853 5.23865 21.668L5.23999 21.6693C5.40532 21.86 5.57599 22.056 5.75865 22.2786C6.01865 22.5946 6.18132 22.776 6.34265 22.8906C6.46132 22.976 6.56132 23.0106 6.72399 22.9973C6.80265 22.992 6.91332 22.9573 7.58399 22.652C8.09599 22.4186 8.15732 22.38 8.19199 22.3493C8.25199 22.2973 8.27599 22.2546 8.29599 22.1746C8.32532 22.0546 8.33332 21.8973 8.33332 21.5946V15.74C8.33332 15.4373 8.32532 15.2786 8.29599 15.16C8.27599 15.0786 8.25199 15.036 8.19199 14.984C8.15732 14.9546 8.09599 14.9146 7.58399 14.6826C6.91332 14.376 6.80265 14.3426 6.72399 14.336C6.55865 14.3226 6.45332 14.36 6.32132 14.4586Z" fill="#192A3E"/>
</svg>
