<svg xmlns="http://www.w3.org/2000/svg" xmlns:xlink="http://www.w3.org/1999/xlink" version="1.1" width="256" height="256" viewBox="0 0 256 256" xml:space="preserve">
<g style="stroke: none; stroke-width: 0; stroke-dasharray: none; stroke-linecap: butt; stroke-linejoin: miter; stroke-miterlimit: 10; fill: none; fill-rule: nonzero; opacity: 1;" transform="translate(1.4065934065934016 1.4065934065934016) scale(2.81 2.81)">
	<path d="M 2.57 30 l 84.859 0 C 81.254 12.534 64.611 0.015 45.033 0 l -0.068 0 C 25.388 0.015 8.745 12.534 2.57 30 z" style="stroke: none; stroke-width: 1; stroke-dasharray: none; stroke-linecap: butt; stroke-linejoin: miter; stroke-miterlimit: 10; fill: rgb(206,17,38); fill-rule: nonzero; opacity: 1;" transform=" matrix(1 0 0 1 0 0) " stroke-linecap="round"/>
	<path d="M 87.429 60 L 2.57 60 C 8.749 77.476 25.408 90 45 90 S 81.25 77.476 87.429 60 z" style="stroke: none; stroke-width: 1; stroke-dasharray: none; stroke-linecap: butt; stroke-linejoin: miter; stroke-miterlimit: 10; fill: rgb(0,0,0); fill-rule: nonzero; opacity: 1;" transform=" matrix(1 0 0 1 0 0) " stroke-linecap="round"/>
	<path d="M 87.429 60 C 89.088 55.307 90 50.261 90 45 c 0 -5.261 -0.911 -10.307 -2.571 -15 L 2.57 30 C 0.911 34.693 0 39.739 0 45 c 0 5.261 0.912 10.307 2.571 15 L 87.429 60 z" style="stroke: none; stroke-width: 1; stroke-dasharray: none; stroke-linecap: butt; stroke-linejoin: miter; stroke-miterlimit: 10; fill: rgb(243,244,245); fill-rule: nonzero; opacity: 1;" transform=" matrix(1 0 0 1 0 0) " stroke-linecap="round"/>
	<path d="M 37.272 51.529 l 3.974 -3.604 l -1.628 7.012 H 50.38 l -1.658 -7.127 l 4.006 3.719 c 0.02 0.018 0.044 0.026 0.068 0.026 c 0.015 0 0.028 -0.003 0.042 -0.009 c 0.037 -0.017 0.06 -0.055 0.058 -0.095 l -0.549 -11.991 c -0.027 -0.677 -0.245 -1.133 -0.648 -1.356 c -0.786 -0.436 -2.036 0.18 -2.539 0.469 c -0.647 0.414 -1.373 0.616 -2.168 0.619 c -0.292 -0.52 -0.548 -1.554 -0.507 -2.477 c 0.029 -0.716 -0.037 -1.178 -0.137 -1.482 h 0.008 l -0.028 -0.066 c -0.002 -0.006 -0.005 -0.011 -0.007 -0.017 l -0.023 -0.056 c -0.001 -0.002 -0.002 -0.003 -0.003 -0.004 c -0.058 -0.134 -0.123 -0.231 -0.185 -0.294 c -0.001 -0.001 -0.001 -0.002 -0.002 -0.003 c -0.018 -0.018 -0.056 -0.034 -0.079 -0.052 c -0.291 -0.222 -0.942 -0.401 -1.411 -0.427 c -0.12 -0.007 -0.212 0.026 -0.271 0.094 c -0.023 0.027 -0.038 0.056 -0.047 0.084 c -0.064 -0.015 -0.138 -0.028 -0.21 -0.041 c -0.284 -0.052 -0.6 -0.073 -0.834 0.003 c -0.05 0.016 -0.106 0.026 -0.146 0.053 c -0.023 0.015 -0.038 0.045 -0.058 0.067 c -0.02 0.023 -0.043 0.041 -0.059 0.068 c -0.008 0.014 -0.013 0.032 -0.02 0.047 c -0.016 0.036 -0.034 0.073 -0.044 0.106 h 0.001 c -0.001 0.001 -0.001 0.001 -0.001 0.002 l 0.002 0.001 c -0.001 0.004 -0.003 0.007 -0.004 0.011 l -0.003 0 l 0.003 0.002 c -0.044 0.148 -0.061 0.31 -0.051 0.411 c 0.003 0.03 0.022 0.098 0.065 0.15 L 42.866 35.6 l 0.26 -0.208 c 0.012 -0.01 0.023 -0.012 0.035 -0.021 c 0.068 -0.047 0.135 -0.071 0.202 -0.077 c 0.025 -0.002 0.049 -0.01 0.074 -0.006 c 0.15 0.022 0.313 0.154 0.47 0.382 c 0.006 0.009 0.008 0.029 0.014 0.039 c 0.148 0.266 0.154 0.986 -0.129 1.921 c -0.178 0.59 -0.546 1.184 -0.808 1.561 c -0.785 -0.007 -1.505 -0.209 -2.147 -0.621 c -0.5 -0.285 -1.747 -0.901 -2.535 -0.466 c -0.403 0.223 -0.622 0.679 -0.649 1.355 l -0.549 11.99 c -0.001 0.04 0.021 0.077 0.058 0.095 C 37.2 51.562 37.243 51.556 37.272 51.529 z" style="stroke: none; stroke-width: 1; stroke-dasharray: none; stroke-linecap: butt; stroke-linejoin: miter; stroke-miterlimit: 10; fill: rgb(238,188,49); fill-rule: nonzero; opacity: 1;" transform=" matrix(1 0 0 1 0 0) " stroke-linecap="round"/>
</g>
</svg>