<svg width="214" height="41" viewBox="0 0 214 41" fill="none" xmlns="http://www.w3.org/2000/svg">
<g clip-path="url(#clip0_290_2579)">
<path d="M51.5815 2.09131H56.9244V31.1434H65.7158V35.9855H51.5815V2.09131Z" fill="white"/>
<path d="M75.8111 36.4695C73.1883 36.4695 71.1807 35.7271 69.7882 34.2421C68.3959 32.7572 67.6997 30.6591 67.6997 27.9475V10.1289C67.6997 7.41736 68.3959 5.31915 69.7882 3.83427C71.1807 2.34937 73.1883 1.60693 75.8111 1.60693C78.4339 1.60693 80.4415 2.34937 81.834 3.83427C83.2263 5.31915 83.9225 7.41736 83.9225 10.1289V27.9475C83.9225 30.6591 83.2263 32.7572 81.834 34.2421C80.4415 35.7271 78.4339 36.4695 75.8111 36.4695ZM75.8111 31.6275C77.6569 31.6275 78.5797 30.5137 78.5797 28.2864V9.78995C78.5797 7.56261 77.6569 6.44895 75.8111 6.44895C73.9654 6.44895 73.0425 7.56261 73.0425 9.78995V28.2864C73.0425 30.5137 73.9654 31.6275 75.8111 31.6275Z" fill="white"/>
<path d="M95.113 36.4695C92.5225 36.4695 90.5473 35.7432 89.1872 34.2905C87.8272 32.8057 87.1472 30.6913 87.1472 27.9475V10.1289C87.1472 7.38508 87.8272 5.28687 89.1872 3.83427C90.5473 2.34937 92.5225 1.60693 95.113 1.60693C97.7034 1.60693 99.6787 2.34937 101.039 3.83427C102.399 5.28687 103.079 7.38508 103.079 10.1289V13.0341H98.0272V9.78995C98.0272 7.56261 97.1044 6.44895 95.2586 6.44895C93.413 6.44895 92.4901 7.56261 92.4901 9.78995V28.3349C92.4901 30.53 93.413 31.6275 95.2586 31.6275C97.1044 31.6275 98.0272 30.53 98.0272 28.3349V21.7013H95.3559V16.8593H103.079V27.9475C103.079 30.6913 102.399 32.8057 101.039 34.2905C99.6787 35.7432 97.7034 36.4695 95.113 36.4695Z" fill="white"/>
<path d="M114.232 36.4695C111.609 36.4695 109.601 35.7271 108.209 34.2421C106.817 32.7572 106.12 30.6591 106.12 27.9475V10.1289C106.12 7.41736 106.817 5.31915 108.209 3.83427C109.601 2.34937 111.609 1.60693 114.232 1.60693C116.855 1.60693 118.862 2.34937 120.255 3.83427C121.647 5.31915 122.343 7.41736 122.343 10.1289V27.9475C122.343 30.6591 121.647 32.7572 120.255 34.2421C118.862 35.7271 116.855 36.4695 114.232 36.4695ZM114.232 31.6275C116.078 31.6275 117 30.5137 117 28.2864V9.78995C117 7.56261 116.078 6.44895 114.232 6.44895C112.386 6.44895 111.463 7.56261 111.463 9.78995V28.2864C111.463 30.5137 112.386 31.6275 114.232 31.6275Z" fill="white"/>
<path d="M125.967 2.09131H131.31V35.9855H125.967V2.09131Z" fill="white"/>
<path d="M135.311 2.09131H143.179C145.834 2.09131 147.826 2.80147 149.154 4.2218C150.482 5.64212 151.146 7.72419 151.146 10.468V13.809C151.146 16.5528 150.482 18.6348 149.154 20.0552C147.826 21.4755 145.834 22.1856 143.179 22.1856H140.654V35.9855H135.311V2.09131ZM143.179 17.3436C144.054 17.3436 144.701 17.1015 145.123 16.6174C145.576 16.1331 145.802 15.31 145.802 14.1479V10.1291C145.802 8.96698 145.576 8.14383 145.123 7.65963C144.701 7.17543 144.054 6.93334 143.179 6.93334H140.654V17.3436H143.179Z" fill="white"/>
<path d="M161.182 36.4695C158.593 36.4695 156.633 35.7432 155.305 34.2905C153.978 32.8057 153.314 30.6913 153.314 27.9475V26.0107H158.365V28.3349C158.365 30.53 159.288 31.6275 161.134 31.6275C162.041 31.6275 162.72 31.3692 163.174 30.8528C163.659 30.304 163.903 29.4324 163.903 28.238C163.903 26.8177 163.579 25.5749 162.932 24.5097C162.284 23.4121 161.086 22.1048 159.336 20.5876C157.135 18.6508 155.597 16.9077 154.722 15.3583C153.849 13.7765 153.411 12.0011 153.411 10.0321C153.411 7.3528 154.091 5.28687 155.451 3.83427C156.811 2.34937 158.787 1.60693 161.377 1.60693C163.935 1.60693 165.862 2.34937 167.157 3.83427C168.485 5.28687 169.148 7.38508 169.148 10.1289V11.5331H164.097V9.78995C164.097 8.62787 163.871 7.78857 163.417 7.27209C162.964 6.72333 162.3 6.44895 161.426 6.44895C159.644 6.44895 158.755 7.53033 158.755 9.69311C158.755 10.9197 159.078 12.0657 159.726 13.1309C160.405 14.1961 161.619 15.4873 163.369 17.0045C165.603 18.9413 167.141 20.7007 167.983 22.2824C168.825 23.8641 169.246 25.7201 169.246 27.8507C169.246 30.6268 168.549 32.7572 167.157 34.2421C165.796 35.7271 163.805 36.4695 161.182 36.4695Z" fill="white"/>
<path d="M180.081 36.4696C177.49 36.4696 175.515 35.7434 174.155 34.2907C172.794 32.8059 172.115 30.6915 172.115 27.9476V2.09131H177.458V28.3351C177.458 29.4971 177.684 30.3364 178.138 30.853C178.623 31.3694 179.304 31.6276 180.177 31.6276C181.052 31.6276 181.715 31.3694 182.169 30.853C182.654 30.3364 182.898 29.4971 182.898 28.3351V2.09131H188.046V27.9476C188.046 30.6915 187.366 32.8059 186.006 34.2907C184.646 35.7434 182.67 36.4696 180.081 36.4696Z" fill="white"/>
<path d="M191.851 2.09131H199.477L202.877 26.3498H202.974L206.375 2.09131H214V35.9855H208.948V10.3227H208.852L204.965 35.9855H200.497L196.611 10.3227H196.515V35.9855H191.851V2.09131Z" fill="white"/>
<path d="M0 35.9855C6.57312 35.9855 11.9016 30.6735 11.9016 24.121C11.9016 17.5683 6.57312 12.2563 0 12.2563V20.5615C1.97192 20.5615 3.57047 22.1551 3.57047 24.121C3.57047 26.0867 1.97192 27.6803 0 27.6803V35.9855Z" fill="white"/>
<path d="M39.6721 16.211C37.6383 15.5687 35.4725 15.2222 33.2254 15.2222C21.4485 15.2222 11.9017 24.7395 11.9017 36.4795C11.9017 37.6579 11.9978 38.8139 12.1828 39.94H25.4319C24.9589 38.883 24.696 37.7119 24.696 36.4795C24.696 31.7835 28.5147 27.9766 33.2254 27.9766C35.8001 27.9766 38.1082 29.1138 39.6721 30.9118V16.211Z" fill="white"/>
<path d="M2.09253 0.391602C3.07926 9.28992 10.6469 16.2111 19.8361 16.2111C29.0251 16.2111 36.5928 9.28992 37.5795 0.391602H24.8124C24.0242 2.36134 22.0931 3.75321 19.8361 3.75321C17.5789 3.75321 15.6479 2.36134 14.8596 0.391602H2.09253Z" fill="white"/>
</g>
<defs>
<clipPath id="clip0_290_2579">
<rect width="214" height="40" fill="white" transform="translate(0 0.391602)"/>
</clipPath>
</defs>
</svg>
