<svg width="14" height="15" viewBox="0 0 14 15" fill="none" xmlns="http://www.w3.org/2000/svg">
<path d="M7 1.8125C5.87512 1.8125 4.7755 2.14607 3.8402 2.77102C2.90489 3.39597 2.17591 4.28423 1.74544 5.32349C1.31496 6.36274 1.20233 7.50631 1.42179 8.60958C1.64124 9.71284 2.18292 10.7263 2.97833 11.5217C3.77374 12.3171 4.78716 12.8588 5.89043 13.0782C6.99369 13.2977 8.13726 13.185 9.17651 12.7546C10.2158 12.3241 11.104 11.5951 11.729 10.6598C12.3539 9.7245 12.6875 8.62488 12.6875 7.5C12.6859 5.99207 12.0862 4.54636 11.0199 3.48009C9.95364 2.41382 8.50793 1.81409 7 1.8125ZM7 12.3125C6.04818 12.3125 5.11773 12.0303 4.32632 11.5014C3.53491 10.9726 2.91808 10.221 2.55383 9.34166C2.18959 8.46229 2.09428 7.49466 2.27997 6.56113C2.46566 5.62759 2.92401 4.77009 3.59705 4.09705C4.27009 3.42401 5.1276 2.96566 6.06113 2.77997C6.99466 2.59428 7.9623 2.68958 8.84167 3.05383C9.72104 3.41808 10.4726 4.03491 11.0014 4.82632C11.5303 5.61773 11.8125 6.54818 11.8125 7.5C11.8111 8.77591 11.3036 9.99915 10.4014 10.9014C9.49915 11.8036 8.27591 12.3111 7 12.3125ZM7.875 10.125C7.875 10.241 7.82891 10.3523 7.74686 10.4344C7.66481 10.5164 7.55353 10.5625 7.4375 10.5625C7.20544 10.5625 6.98288 10.4703 6.81878 10.3062C6.65469 10.1421 6.5625 9.91956 6.5625 9.6875V7.5C6.44647 7.5 6.33519 7.45391 6.25314 7.37186C6.1711 7.28981 6.125 7.17853 6.125 7.0625C6.125 6.94647 6.1711 6.83519 6.25314 6.75314C6.33519 6.67109 6.44647 6.625 6.5625 6.625C6.79457 6.625 7.01713 6.71719 7.18122 6.88128C7.34531 7.04538 7.4375 7.26794 7.4375 7.5V9.6875C7.55353 9.6875 7.66481 9.73359 7.74686 9.81564C7.82891 9.89769 7.875 10.009 7.875 10.125ZM6.125 5.09375C6.125 4.96396 6.16349 4.83708 6.2356 4.72916C6.30771 4.62124 6.4102 4.53712 6.53012 4.48745C6.65003 4.43778 6.78198 4.42479 6.90928 4.45011C7.03658 4.47543 7.15351 4.53793 7.24529 4.62971C7.33707 4.72149 7.39957 4.83842 7.42489 4.96572C7.45021 5.09302 7.43722 5.22497 7.38755 5.34489C7.33788 5.4648 7.25376 5.56729 7.14584 5.6394C7.03793 5.71151 6.91105 5.75 6.78125 5.75C6.6072 5.75 6.44028 5.68086 6.31721 5.55779C6.19414 5.43472 6.125 5.2678 6.125 5.09375Z" fill="white"/>
</svg>
