<svg width="18" height="18" viewBox="0 0 18 18" fill="none" xmlns="http://www.w3.org/2000/svg">
<path d="M5.62111 0.160156C2.81856 0.160156 0.538208 2.47445 0.538208 5.31774V12.6839C0.538208 15.5269 2.8199 17.8402 5.62315 17.8402H12.8856C15.6885 17.8402 17.9692 15.5259 17.9692 12.6826V5.31567C17.9692 2.47308 15.6875 0.160156 12.8842 0.160156H5.62111ZM14.483 2.98896C14.8679 2.98896 15.1802 3.30578 15.1802 3.69616C15.1802 4.08653 14.8679 4.40336 14.483 4.40336C14.0981 4.40336 13.7858 4.08653 13.7858 3.69616C13.7858 3.30578 14.0981 2.98896 14.483 2.98896ZM9.2537 4.40336C11.7533 4.40336 13.7858 6.46484 13.7858 9.00016C13.7858 11.5355 11.753 13.597 9.2537 13.597C6.7541 13.597 4.72164 11.5351 4.72164 9.00016C4.72164 6.4652 6.7541 4.40336 9.2537 4.40336ZM9.2537 5.81776C7.52071 5.81776 6.11612 7.24241 6.11612 9.00016C6.11612 10.7579 7.52071 12.1826 9.2537 12.1826C10.9867 12.1826 12.3913 10.7579 12.3913 9.00016C12.3913 7.24241 10.9867 5.81776 9.2537 5.81776Z" fill="white"/>
</svg>
