<svg xmlns="http://www.w3.org/2000/svg" width="18" height="18" viewBox="0 0 18 18" fill="none">
<path d="M15.0229 7.14798L9.39792 12.773C9.34567 12.8253 9.28364 12.8668 9.21535 12.8951C9.14706 12.9234 9.07387 12.9379 8.99995 12.9379C8.92603 12.9379 8.85283 12.9234 8.78454 12.8951C8.71626 12.8668 8.65422 12.8253 8.60198 12.773L2.97698 7.14798C2.87143 7.04243 2.81213 6.89927 2.81213 6.75001C2.81213 6.60074 2.87143 6.45759 2.97698 6.35204C3.08253 6.24649 3.22568 6.18719 3.37495 6.18719C3.52421 6.18719 3.66737 6.24649 3.77292 6.35204L8.99995 11.5798L14.227 6.35204C14.2792 6.29978 14.3413 6.25832 14.4096 6.23004C14.4779 6.20175 14.551 6.18719 14.6249 6.18719C14.6989 6.18719 14.772 6.20175 14.8403 6.23004C14.9086 6.25832 14.9707 6.29978 15.0229 6.35204C15.0752 6.4043 15.1166 6.46634 15.1449 6.53463C15.1732 6.60291 15.1878 6.6761 15.1878 6.75001C15.1878 6.82392 15.1732 6.8971 15.1449 6.96539C15.1166 7.03367 15.0752 7.09571 15.0229 7.14798Z" fill="#00A8E0"/>
</svg>