<svg width="18" height="18" viewBox="0 0 18 18" fill="none" xmlns="http://www.w3.org/2000/svg">
<path fill-rule="evenodd" clip-rule="evenodd" d="M0.0316164 1.63724C0.0316164 1.24549 0.185045 0.869793 0.458151 0.592786C0.731256 0.315779 1.10167 0.160158 1.4879 0.160158H16.0047C16.1961 0.159841 16.3857 0.197819 16.5626 0.271917C16.7396 0.346016 16.9003 0.454779 17.0357 0.591981C17.1712 0.729183 17.2786 0.892129 17.3518 1.07149C17.4251 1.25085 17.4627 1.4431 17.4626 1.63724V16.3615C17.4628 16.5556 17.4253 16.748 17.3521 16.9274C17.279 17.1068 17.1717 17.2699 17.0363 17.4072C16.901 17.5446 16.7403 17.6535 16.5634 17.7278C16.3866 17.8021 16.197 17.8403 16.0055 17.8402H1.4879C1.29659 17.8402 1.10715 17.8019 0.930419 17.7276C0.753683 17.6534 0.593109 17.5445 0.457871 17.4072C0.322632 17.27 0.21538 17.1071 0.142242 16.9278C0.0691033 16.7485 0.0315123 16.5563 0.0316164 16.3623V1.63724ZM6.93112 6.90106H9.29143V8.1033C9.63213 7.41217 10.5037 6.79016 11.8134 6.79016C14.3242 6.79016 14.9193 8.16679 14.9193 10.6926V15.3714H12.3783V11.268C12.3783 9.82951 12.0376 9.01784 11.1724 9.01784C9.97203 9.01784 9.47287 9.893 9.47287 11.268V15.3714H6.93112V6.90106ZM2.57337 15.2613H5.11513V6.79016H2.57337V15.2605V15.2613ZM5.4788 4.02726C5.48359 4.24799 5.44487 4.46748 5.3649 4.67283C5.28492 4.87818 5.16532 5.06526 5.0131 5.22309C4.86088 5.38092 4.67911 5.50633 4.47846 5.59194C4.27781 5.67756 4.06233 5.72166 3.84464 5.72166C3.62696 5.72166 3.41148 5.67756 3.21083 5.59194C3.01018 5.50633 2.82841 5.38092 2.67619 5.22309C2.52397 5.06526 2.40436 4.87818 2.32439 4.67283C2.24442 4.46748 2.2057 4.24799 2.21049 4.02726C2.2199 3.59398 2.3962 3.18166 2.70164 2.87861C3.00707 2.57555 3.41737 2.40585 3.84464 2.40585C4.27192 2.40585 4.68221 2.57555 4.98765 2.87861C5.29309 3.18166 5.46939 3.59398 5.4788 4.02726Z" fill="white"/>
</svg>
