<svg width="214" height="40" viewBox="0 0 214 40" fill="none" xmlns="http://www.w3.org/2000/svg">
<g clip-path="url(#clip0_124_1456)">
<path d="M51.5815 1.69953H56.9244V30.7516H65.7158V35.5937H51.5815V1.69953Z" fill="#192A3E"/>
<path d="M75.8111 36.0779C73.1883 36.0779 71.1807 35.3355 69.7882 33.8505C68.3959 32.3656 67.6997 30.2675 67.6997 27.5559V9.73729C67.6997 7.02576 68.3959 4.92755 69.7882 3.44267C71.1807 1.95777 73.1883 1.21533 75.8111 1.21533C78.4339 1.21533 80.4415 1.95777 81.834 3.44267C83.2263 4.92755 83.9225 7.02576 83.9225 9.73729V27.5559C83.9225 30.2675 83.2263 32.3656 81.834 33.8505C80.4415 35.3355 78.4339 36.0779 75.8111 36.0779ZM75.8111 31.2359C77.6569 31.2359 78.5797 30.1221 78.5797 27.8948V9.39835C78.5797 7.17101 77.6569 6.05735 75.8111 6.05735C73.9654 6.05735 73.0425 7.17101 73.0425 9.39835V27.8948C73.0425 30.1221 73.9654 31.2359 75.8111 31.2359Z" fill="#192A3E"/>
<path d="M95.113 36.0779C92.5225 36.0779 90.5473 35.3516 89.1872 33.8989C87.8272 32.4141 87.1472 30.2997 87.1472 27.5559V9.73729C87.1472 6.99348 87.8272 4.89527 89.1872 3.44267C90.5473 1.95777 92.5225 1.21533 95.113 1.21533C97.7034 1.21533 99.6787 1.95777 101.039 3.44267C102.399 4.89527 103.079 6.99348 103.079 9.73729V12.6425H98.0272V9.39835C98.0272 7.17101 97.1044 6.05735 95.2586 6.05735C93.413 6.05735 92.4901 7.17101 92.4901 9.39835V27.9433C92.4901 30.1384 93.413 31.2359 95.2586 31.2359C97.1044 31.2359 98.0272 30.1384 98.0272 27.9433V21.3097H95.3559V16.4677H103.079V27.5559C103.079 30.2997 102.399 32.4141 101.039 33.8989C99.6787 35.3516 97.7034 36.0779 95.113 36.0779Z" fill="#192A3E"/>
<path d="M114.232 36.0779C111.609 36.0779 109.601 35.3355 108.209 33.8505C106.817 32.3656 106.12 30.2675 106.12 27.5559V9.73729C106.12 7.02576 106.817 4.92755 108.209 3.44267C109.601 1.95777 111.609 1.21533 114.232 1.21533C116.855 1.21533 118.862 1.95777 120.255 3.44267C121.647 4.92755 122.343 7.02576 122.343 9.73729V27.5559C122.343 30.2675 121.647 32.3656 120.255 33.8505C118.862 35.3355 116.855 36.0779 114.232 36.0779ZM114.232 31.2359C116.078 31.2359 117 30.1221 117 27.8948V9.39835C117 7.17101 116.078 6.05735 114.232 6.05735C112.386 6.05735 111.463 7.17101 111.463 9.39835V27.8948C111.463 30.1221 112.386 31.2359 114.232 31.2359Z" fill="#192A3E"/>
<path d="M125.967 1.69953H131.31V35.5937H125.967V1.69953Z" fill="#192A3E"/>
<path d="M135.311 1.69953H143.179C145.834 1.69953 147.826 2.40969 149.154 3.83002C150.482 5.25034 151.146 7.33241 151.146 10.0762V13.4172C151.146 16.1611 150.482 18.2431 149.154 19.6635C147.826 21.0837 145.834 21.7939 143.179 21.7939H140.654V35.5937H135.311V1.69953ZM143.179 16.9519C144.054 16.9519 144.701 16.7097 145.123 16.2256C145.576 15.7413 145.802 14.9183 145.802 13.7561V9.73729C145.802 8.5752 145.576 7.75205 145.123 7.26785C144.701 6.78365 144.054 6.54156 143.179 6.54156H140.654V16.9519H143.179Z" fill="#192A3E"/>
<path d="M161.182 36.0779C158.593 36.0779 156.633 35.3516 155.305 33.8989C153.978 32.4141 153.314 30.2997 153.314 27.5559V25.6191H158.365V27.9433C158.365 30.1384 159.288 31.2359 161.134 31.2359C162.041 31.2359 162.72 30.9776 163.174 30.4612C163.659 29.9124 163.903 29.0408 163.903 27.8464C163.903 26.4261 163.579 25.1833 162.932 24.1181C162.284 23.0205 161.086 21.7132 159.336 20.196C157.135 18.2592 155.597 16.5161 154.722 14.9667C153.849 13.3849 153.411 11.6095 153.411 9.64045C153.411 6.9612 154.091 4.89527 155.451 3.44267C156.811 1.95777 158.787 1.21533 161.377 1.21533C163.935 1.21533 165.862 1.95777 167.157 3.44267C168.485 4.89527 169.148 6.99348 169.148 9.73729V11.1415H164.097V9.39835C164.097 8.23627 163.871 7.39697 163.417 6.88049C162.964 6.33173 162.3 6.05735 161.426 6.05735C159.644 6.05735 158.755 7.13873 158.755 9.30151C158.755 10.5281 159.078 11.6741 159.726 12.7393C160.405 13.8045 161.619 15.0957 163.369 16.6129C165.603 18.5497 167.141 20.3091 167.983 21.8908C168.825 23.4725 169.246 25.3285 169.246 27.4591C169.246 30.2352 168.549 32.3656 167.157 33.8505C165.796 35.3355 163.805 36.0779 161.182 36.0779Z" fill="#192A3E"/>
<path d="M180.081 36.0779C177.49 36.0779 175.515 35.3516 174.155 33.8989C172.794 32.4141 172.115 30.2997 172.115 27.5559V1.69953H177.458V27.9433C177.458 29.1053 177.684 29.9447 178.138 30.4612C178.623 30.9776 179.304 31.2359 180.177 31.2359C181.052 31.2359 181.715 30.9776 182.169 30.4612C182.654 29.9447 182.898 29.1053 182.898 27.9433V1.69953H188.046V27.5559C188.046 30.2997 187.366 32.4141 186.006 33.8989C184.646 35.3516 182.67 36.0779 180.081 36.0779Z" fill="#192A3E"/>
<path d="M191.851 1.69953H199.477L202.877 25.958H202.974L206.375 1.69953H214V35.5937H208.948V9.93097H208.852L204.965 35.5937H200.497L196.611 9.93097H196.515V35.5937H191.851V1.69953Z" fill="#192A3E"/>
<path d="M0 35.5937C6.57312 35.5937 11.9016 30.2817 11.9016 23.7292C11.9016 17.1765 6.57312 11.8646 0 11.8646V20.1697C1.97192 20.1697 3.57047 21.7633 3.57047 23.7292C3.57047 25.6949 1.97192 27.2885 0 27.2885V35.5937Z" fill="#00A8E0"/>
<path d="M39.6721 15.8195C37.6383 15.1772 35.4725 14.8307 33.2254 14.8307C21.4485 14.8307 11.9017 24.348 11.9017 36.088C11.9017 37.2664 11.9978 38.4224 12.1828 39.5485H25.4319C24.9589 38.4915 24.696 37.3204 24.696 36.088C24.696 31.392 28.5147 27.5851 33.2254 27.5851C35.8001 27.5851 38.1082 28.7223 39.6721 30.5203V15.8195Z" fill="#00A8E0"/>
<path d="M2.09253 0C3.07926 8.89832 10.6469 15.8195 19.8361 15.8195C29.0251 15.8195 36.5928 8.89832 37.5795 0H24.8124C24.0242 1.96973 22.0931 3.36161 19.8361 3.36161C17.5789 3.36161 15.6479 1.96973 14.8596 0H2.09253Z" fill="#00A8E0"/>
</g>
<defs>
<clipPath id="clip0_124_1456">
<rect width="214" height="40" fill="white"/>
</clipPath>
</defs>
</svg>
