<svg width="60" height="60" viewBox="0 0 60 60" fill="none" xmlns="http://www.w3.org/2000/svg">
<path d="M10 45.8196C16.5731 45.8196 21.9016 40.5076 21.9016 33.955C21.9016 27.4024 16.5731 22.0904 10 22.0904V30.3956C11.9719 30.3956 13.5705 31.9892 13.5705 33.955C13.5705 35.9208 11.9719 37.5144 10 37.5144V45.8196Z" fill="white"/>
<path d="M49.6721 26.0453C47.6383 25.403 45.4725 25.0565 43.2254 25.0565C31.4485 25.0565 21.9017 34.5738 21.9017 46.3138C21.9017 47.4922 21.9978 48.6482 22.1828 49.7744H35.4319C34.9589 48.7173 34.696 47.5462 34.696 46.3138C34.696 41.6178 38.5147 37.8109 43.2254 37.8109C45.8001 37.8109 48.1082 38.9481 49.6721 40.7461V26.0453Z" fill="white"/>
<path d="M12.0925 10.2258C13.0793 19.1242 20.6469 26.0453 29.8361 26.0453C39.0251 26.0453 46.5928 19.1242 47.5795 10.2258H34.8124C34.0242 12.1956 32.0931 13.5874 29.8361 13.5874C27.5789 13.5874 25.6479 12.1956 24.8596 10.2258H12.0925Z" fill="white"/>
</svg>
