<svg width="32" height="32" viewBox="0 0 32 32" fill="none" xmlns="http://www.w3.org/2000/svg">
<path fill-rule="evenodd" clip-rule="evenodd" d="M21.9265 16.3359C21.7591 16.3338 21.5916 16.3244 21.4251 16.308C21.092 17.4068 20.4329 18.3666 19.5612 19.0736C22.3813 20.3042 24.3333 22.949 24.3333 26.0052C24.3333 26.5519 23.88 27.0052 23.3333 27.0052C22.7867 27.0052 22.3333 26.5519 22.3333 26.0052C22.3333 22.8852 19.4933 20.3386 16 20.3386C12.5067 20.3386 9.66666 22.8852 9.66666 26.0052C9.66666 26.5519 9.21332 27.0052 8.66666 27.0052C8.11999 27.0052 7.66666 26.5519 7.66666 26.0052C7.66666 22.949 9.6186 20.3042 12.4387 19.0736C11.5713 18.37 10.9143 17.416 10.5797 16.3238C10.3893 16.3426 10.1962 16.3519 9.99999 16.3519V16.3386C6.50666 16.3386 3.66666 18.8852 3.66666 22.0052C3.66666 22.5519 3.21332 23.0052 2.66666 23.0052C2.11999 23.0052 1.66666 22.5519 1.66666 22.0052C1.66666 18.949 3.6186 16.3042 6.43874 15.0736C5.15587 14.0331 4.33332 12.4451 4.33332 10.6719C4.33332 7.55192 6.87999 5.00525 9.99999 5.00525C12.5478 5.00525 14.72 6.67 15.4272 9.03409C15.6156 9.01502 15.8067 9.00525 16 9.00525C16.192 9.00525 16.3819 9.01489 16.5691 9.03372C17.2703 6.66992 19.4367 4.98962 22.0003 4.98962C25.1203 4.98962 27.6669 7.53629 27.6669 10.6563C27.6669 12.4353 26.8389 14.0279 25.5488 15.0682C28.3756 16.2964 30.3333 18.9446 30.3333 22.0052C30.3333 22.5519 29.88 23.0052 29.3333 23.0052C28.7867 23.0052 28.3333 22.5519 28.3333 22.0052C28.3333 18.8852 25.4933 16.3386 22 16.3386C21.9753 16.3386 21.9508 16.3376 21.9265 16.3359ZM10.1435 14.3491C10.0965 14.3422 10.0486 14.3386 9.99999 14.3386C9.91091 14.3386 9.82215 14.3399 9.73375 14.3424C7.83162 14.2063 6.33332 12.6224 6.33332 10.6853C6.33332 8.6586 7.97332 7.0186 9.99999 7.0186C11.6403 7.0186 13.0405 8.07945 13.5068 9.58554C11.7253 10.4641 10.4663 12.252 10.3432 14.3358C10.2767 14.342 10.2101 14.3464 10.1435 14.3491ZM19.6367 15.1438C19.4055 16.9471 17.8668 18.3386 16 18.3386C14.1339 18.3386 12.5955 16.948 12.3636 15.1455C12.363 15.0827 12.3567 15.0192 12.3441 14.9556C12.337 14.862 12.3333 14.7674 12.3333 14.6719C12.3333 13.0493 13.3845 11.6746 14.8439 11.1909C14.9073 11.1783 14.9685 11.1596 15.0267 11.1356C15.3367 11.0506 15.6629 11.0053 16 11.0053C18.0267 11.0053 19.6667 12.6453 19.6667 14.6719C19.6667 14.7598 19.6636 14.8468 19.6576 14.9331C19.6431 15.0035 19.6363 15.0742 19.6367 15.1438ZM21.6559 14.3206C21.7685 14.3311 21.8831 14.3363 22.0003 14.3363C24.0269 14.3363 25.6669 12.6963 25.6669 10.6696C25.6669 8.64297 24.0269 7.00297 22.0003 7.00297C20.3549 7.00297 18.9513 8.07025 18.4893 9.5836C20.2685 10.4593 21.5275 12.2417 21.6559 14.3206Z" fill="#192A3E"/>
</svg>
