<svg width="18" height="14" viewBox="0 0 18 14" fill="none" xmlns="http://www.w3.org/2000/svg">
<path d="M17.8619 1.8912C17.2672 2.12506 16.6354 2.28697 15.9664 2.35893C16.6726 1.96316 17.2115 1.33353 17.5088 0.595962C17.5274 0.541994 17.4716 0.506016 17.4345 0.524005C16.7655 0.883794 16.0407 1.13564 15.2788 1.27956C14.6284 0.613952 13.6807 0.200195 12.6586 0.200195C10.6702 0.200195 9.05346 1.7293 9.05346 3.63617C9.05346 3.90601 9.09063 4.15787 9.14638 4.40972C6.1545 4.2658 3.51569 2.9166 1.7503 0.847814C1.7503 0.829825 1.73171 0.829825 1.71313 0.847814C1.4158 1.35152 1.24855 1.92718 1.24855 2.55681C1.24855 3.72612 1.86179 4.75152 2.79095 5.36316C2.80953 5.38115 2.79095 5.39914 2.77237 5.39914C2.21488 5.36316 1.71313 5.21924 1.24855 4.98538C1.22997 4.98538 1.21139 4.98538 1.22997 5.00337C1.22997 5.14728 1.28572 5.83088 1.47155 6.26263C1.91755 7.34199 2.90245 8.15152 4.11036 8.38538C3.81303 8.45734 3.47852 8.5113 3.16261 8.5113C2.93961 8.5113 2.7352 8.49331 2.5122 8.45734C2.49362 8.45734 2.49362 8.47533 2.49362 8.47533C2.9582 9.80654 4.25902 10.778 5.78284 10.8319C5.80142 10.8319 5.82 10.8499 5.80142 10.8679C4.57493 11.7674 3.05112 12.3071 1.37863 12.3071C1.0813 12.3071 0.802551 12.2891 0.523804 12.2531C2.12195 13.2245 4.01743 13.8002 6.043 13.8002C8.84905 13.8002 11.1162 12.8647 12.7887 11.4436C14.4797 10.0044 15.5947 8.07956 16.0407 6.10072C16.208 5.41713 16.2823 4.71554 16.2823 4.03194C16.2823 3.88803 16.2823 3.74411 16.2637 3.58221C16.9141 3.13247 17.4902 2.5748 17.9548 1.96316C17.9548 1.92718 17.9176 1.87321 17.8619 1.8912Z" fill="white"/>
</svg>
