<svg width="116" height="149" viewBox="0 0 116 149" fill="none" xmlns="http://www.w3.org/2000/svg">
<g opacity="0.1">
<path d="M4.76447 88.9C10.4645 90 16.4645 89 21.8645 87C27.3645 85 32.3645 82 37.3645 79.1C44.5645 74.8 51.8645 70.5 58.5645 65.4C61.1645 63.4 63.6645 61.4 66.1645 59.3C71.3645 55 76.5645 50.7 81.2645 45.8C83.0645 43.9 84.7645 42 86.4645 39.9C95.1645 29.2 101.664 16 106.164 3C114.864 11.5 125.864 17.5 137.664 20.2C149.464 22.9 162.064 22.3 173.564 18.4C167.264 45.8 152.464 70.4 135.164 92.6C119.164 113.2 100.964 132.5 78.7645 145.9C56.4645 139.7 37.7645 124.4 19.9645 109.5C16.4645 106.6 12.9645 103.6 9.46448 100.7C6.16448 97.9 2.46449 94.3 3.06449 90C3.16449 89.4 3.36447 88.9 3.76447 88.5C4.16447 88.1 4.96447 88.2 5.26447 88.7" stroke="#00A8E0" stroke-width="4.8189" stroke-miterlimit="10" stroke-linecap="round" stroke-linejoin="round"/>
<path d="M158.564 40.5C156.264 40.4 154.264 38.8 153.264 36.7C152.264 34.6 152.164 32.2 152.464 30C140.664 26.5 127.664 26.4 116.864 20.6C113.564 22.5 109.764 23.3 105.964 23.2C104.464 43.9 48.9645 86.4 29.2645 91.2C32.1645 95.1 31.0645 101.3 26.9645 104C35.7645 116.2 48.7645 125.5 62.9645 130.5C64.3645 128.7 66.1645 125.1 68.2645 124.2C71.2645 122.9 74.3645 121.8 77.6645 122C80.8645 122.1 84.2645 123.7 85.8645 126.5C91.5645 122.4 98.1645 118.8 103.964 114.7C106.164 113.1 108.464 111.5 110.464 109.5C112.564 107.4 114.364 105 116.464 102.8C119.664 99.4 123.464 96.7 126.664 93.3C129.364 90.4 131.464 87.2 133.564 83.9C136.464 79.5 139.264 75.1 142.164 70.7C144.864 66.6 147.564 62.4 149.964 58.1C152.764 53 155.164 47.6 157.964 42.4" stroke="#00A8E0" stroke-width="4.8189" stroke-miterlimit="10" stroke-linecap="round" stroke-linejoin="round"/>
<path d="M71.1645 89.1C68.5645 88.5 65.9645 88.3 63.3645 88.5C62.8645 88.5 62.2645 88.6 61.7645 88.9C61.3645 89.1 60.9645 89.5 60.6645 89.9C57.9645 93.5 58.3645 98.9 61.1645 102.4C63.9645 105.9 68.8645 107.5 73.2645 106.7C74.2645 106.5 75.2645 106.3 76.0645 105.7C77.3645 104.8 78.2645 103.3 78.4645 101.7C78.6645 100.1 78.3645 98.5 77.8645 97C76.7645 94 74.5645 91.3 71.8645 89.5" stroke="#00A8E0" stroke-width="4.8189" stroke-miterlimit="10" stroke-linecap="round" stroke-linejoin="round"/>
<path d="M127.364 33.5C124.964 33.3 122.464 34.2 120.664 35.8C118.864 37.4 117.664 39.7 117.464 42.2C117.164 44.5 117.964 47.2 119.964 48.4C120.564 48.8 121.264 49 121.964 49.2C125.364 49.9 129.064 48.5 131.064 45.7C133.064 42.9 133.064 38.8 130.964 36.1C129.864 34.6 127.964 33.5 126.264 34.1" stroke="#00A8E0" stroke-width="4.8189" stroke-miterlimit="10" stroke-linecap="round" stroke-linejoin="round"/>
<path d="M106.665 110.7C103.665 104.5 102.265 97.6 102.665 90.7C91.5645 90.5 80.8645 82.8 77.2645 72.3C75.6645 67.6 75.6645 61.6 79.3645 58.3C82.4645 55.6 87.0645 55.5 91.1645 56.1C98.3645 57.2 105.365 59.9 111.365 64.1C113.765 65.8 116.165 67.8 117.165 70.6C118.865 75 116.265 80.5 111.865 82.1C114.165 83.6 116.465 85.1 118.765 86.6" stroke="#00A8E0" stroke-width="4.8189" stroke-miterlimit="10" stroke-linecap="round" stroke-linejoin="round"/>
<path d="M85.5645 71.5C86.1645 72.1 86.8644 72.7 87.4644 73.3C87.7644 73.6 88.1645 74 88.6645 74C89.1645 74 89.5644 73.7 89.9644 73.4C92.1644 71.7 94.0644 69.5 95.4644 67.1C96.0644 66 96.6644 64.7 97.8644 64.2C98.5644 63.9 99.4644 63.9 100.264 64C102.064 64.3 103.764 64.9 105.264 65.8C106.164 66.3 107.064 67 107.464 68C107.864 69 107.764 70.2 106.864 70.8" stroke="#00A8E0" stroke-width="4.8189" stroke-miterlimit="10" stroke-linecap="round" stroke-linejoin="round"/>
<path d="M118.464 78C123.764 79 129.164 79.1 134.464 78.5" stroke="#00A8E0" stroke-width="4.8189" stroke-miterlimit="10" stroke-linecap="round" stroke-linejoin="round"/>
</g>
</svg>
