<svg width="126" height="116" viewBox="0 0 126 116" fill="none" xmlns="http://www.w3.org/2000/svg">
<g opacity="0.1">
<path d="M-58.4332 26.5C-54.0332 30.3 -48.4332 32.4 -42.6332 33.4C-36.9332 34.4 -31.0332 34.4 -25.2332 34.3C-16.8332 34.2 -8.33324 34.1 -0.0332413 33.1C3.16676 32.7 6.36676 32.2 9.56676 31.6C16.1668 30.5 22.8668 29.4 29.3668 27.5C31.8668 26.8 34.3668 25.9 36.7668 25C49.6668 20.2 61.9668 12 72.3668 3C75.5668 14.7 82.0668 25.4 90.9668 33.7C99.8668 42 110.967 47.7 122.867 50.2C103.667 70.7 78.4668 84.5 52.4668 95C28.3668 104.8 2.86677 112.3 -23.1332 112.7C-39.3332 96.2 -47.8332 73.5 -55.6332 51.7C-57.2332 47.4 -58.7332 43.1 -60.3332 38.8C-61.8332 34.7 -63.1332 29.7 -60.4332 26.3C-60.0332 25.9 -59.6332 25.4 -59.0332 25.4C-58.4332 25.3 -57.8332 25.7 -57.8332 26.3" stroke="#00A8E0" stroke-width="4.8189" stroke-miterlimit="10" stroke-linecap="round" stroke-linejoin="round"/>
<path d="M98.7668 61.9C96.7668 60.7 95.8668 58.2 96.0668 55.9C96.2668 53.6 97.3668 51.5 98.7668 49.6C90.3668 40.7 79.1668 34 72.6668 23.5C68.8668 23.5 65.1668 22.3 61.9668 20.3C50.2668 37.5 -19.0332 46.3 -38.5332 40.6C-38.0332 45.4 -42.1332 50.2 -46.9332 50.5C-45.4332 65.5 -38.9332 80 -29.1332 91.5C-27.0332 90.6 -23.6332 88.5 -21.3332 88.7C-18.1332 89 -14.8332 89.7 -12.1332 91.5C-9.43322 93.3 -7.33322 96.2 -7.33322 99.5C-0.333221 98.8 7.16678 99 14.1668 98.4C16.9668 98.1 19.6668 97.9 22.3668 97.2C25.2668 96.5 28.0668 95.2 30.9668 94.4C35.3668 93.1 40.0668 92.6 44.4668 91.3C48.1668 90.2 51.6668 88.4 55.1668 86.7C59.8668 84.3 64.5668 82 69.2668 79.6C73.6668 77.4 78.0668 75.2 82.3668 72.6C87.3668 69.6 92.0668 66.1 97.1668 63" stroke="#00A8E0" stroke-width="4.8189" stroke-miterlimit="10" stroke-linecap="round" stroke-linejoin="round"/>
<path d="M-1.13322 60C-3.03322 58.2 -5.23322 56.7 -7.63322 55.6C-8.13322 55.4 -8.63322 55.1 -9.13322 55.1C-9.63322 55.1 -10.1332 55.2 -10.6332 55.4C-14.7332 57.2 -17.1332 62 -16.5332 66.5C-15.9332 71 -12.4332 74.7 -8.23323 76.3C-7.33323 76.7 -6.33322 76.9 -5.33322 76.9C-3.73322 76.8 -2.23323 75.9 -1.23323 74.6C-0.233226 73.3 0.266778 71.8 0.566778 70.2C1.16678 67 0.666783 63.6 -0.833217 60.7" stroke="#00A8E0" stroke-width="4.8189" stroke-miterlimit="10" stroke-linecap="round" stroke-linejoin="round"/>
<path d="M75.4668 40.2C73.4668 38.8 70.8668 38.3 68.4668 38.8C66.0668 39.3 63.9668 40.7 62.4668 42.7C61.0668 44.6 60.3668 47.2 61.4668 49.3C61.7668 49.9 62.2668 50.5 62.7668 50.9C65.2668 53.2 69.2668 53.9 72.3668 52.4C75.4668 51 77.5668 47.4 77.1668 44C76.9668 42.2 75.8668 40.3 74.0668 39.9" stroke="#00A8E0" stroke-width="4.8189" stroke-miterlimit="10" stroke-linecap="round" stroke-linejoin="round"/>
<path d="M18.6668 96.6C19.1668 89.7 21.4668 83 25.2668 77.3C15.7668 71.5 10.3668 59.5 12.5668 48.6C13.5668 43.7 16.5668 38.6 21.4668 37.6C25.4668 36.8 29.5668 39 32.7668 41.6C38.4668 46.1 43.0668 52 46.1668 58.6C47.3668 61.3 48.3668 64.2 47.9668 67.1C47.2668 71.7 42.2668 75.2 37.6668 74.4C38.8668 76.8 40.0668 79.3 41.3668 81.7" stroke="#00A8E0" stroke-width="4.8189" stroke-miterlimit="10" stroke-linecap="round" stroke-linejoin="round"/>
<path d="M20.1668 52.1C20.4668 52.9 20.6668 53.8 20.9668 54.6C21.0668 55.1 21.2668 55.5 21.6668 55.8C22.0668 56.1 22.5668 56 23.0668 56C25.8668 55.6 28.5668 54.7 30.9668 53.3C32.0668 52.7 33.1668 51.9 34.4668 52C35.2668 52.1 35.9668 52.5 36.5668 53C37.9668 54.1 39.1668 55.5 39.9668 57C40.4668 57.9 40.8668 58.9 40.7668 60C40.6668 61 39.8668 62.1 38.7668 62.1" stroke="#00A8E0" stroke-width="4.8189" stroke-miterlimit="10" stroke-linecap="round" stroke-linejoin="round"/>
<path d="M45.3668 74.2C49.4668 77.7 54.0668 80.6 58.9668 82.7" stroke="#00A8E0" stroke-width="4.8189" stroke-miterlimit="10" stroke-linecap="round" stroke-linejoin="round"/>
</g>
</svg>
