<svg width="183" height="187" viewBox="0 0 183 187" fill="none" xmlns="http://www.w3.org/2000/svg">
<g opacity="0.1">
<path d="M97.816 170.563C98.0333 165.594 96.4481 160.657 94.0403 156.261C91.6325 151.865 88.5403 147.981 85.448 144.097C80.9661 138.489 76.4 132.828 71.3178 127.786C69.3691 125.823 67.3664 123.944 65.3097 122.15C61.0518 118.231 56.7939 114.312 52.1581 110.982C50.3603 109.71 48.5625 108.438 46.5725 107.28C36.5624 101.216 24.7038 97.292 13.2074 95.0264C19.1894 86.6266 22.8383 76.4928 23.6811 66.1033C24.5238 55.7139 22.4222 45.0992 17.7082 35.7789C41.3774 37.7739 63.8225 47.4188 84.5034 59.2586C103.699 70.2647 122.128 83.3926 136.109 100.677C133.768 120.441 123.319 138.212 113.05 155.148C111.028 158.485 109.007 161.822 106.985 165.158C105.072 168.327 102.528 171.922 98.8388 171.932C98.3401 171.969 97.8113 171.867 97.4444 171.513C97.0775 171.159 97.0108 170.522 97.4491 170.209" stroke="#00A8E0" stroke-width="4.1068" stroke-miterlimit="10" stroke-linecap="round" stroke-linejoin="round"/>
<path d="M65.2793 56.0755C61.4741 54.2287 57.6991 52.5201 53.7621 51.064C49.0977 49.2602 44.3318 47.9852 39.6674 46.1814" stroke="#00A8E0" stroke-width="4.1068" stroke-miterlimit="10" stroke-linecap="round" stroke-linejoin="round"/>
<path d="M69.7323 116.552C82.4521 128.394 93.5631 141.817 96.6111 149.475C99.5283 146.594 104.774 146.751 107.547 149.836C116.652 140.827 122.763 128.707 125.117 115.961C123.38 114.966 120.254 113.911 119.225 112.182C117.769 109.822 116.474 107.21 116.177 104.524C115.934 101.755 116.796 98.7435 118.958 97.0409C114.747 92.6771 110.939 87.5016 106.867 83.1076C105.255 81.3607 103.589 79.6981 101.677 78.234C99.6802 76.7158 97.3838 75.4804 95.2493 73.9925C93.8724 72.9905 92.6336 71.9583 91.3106 70.8721" stroke="#00A8E0" stroke-width="4.1068" stroke-miterlimit="10" stroke-linecap="round" stroke-linejoin="round"/>
<path d="M38.1349 45.7923C38.4192 47.7567 37.1775 49.6927 35.6164 50.8299C33.9712 51.9131 32.0369 52.3356 30.0963 52.3976C28.6167 62.8538 30.172 73.9498 26.6851 83.8311C28.7005 86.4307 29.8092 89.5179 30.227 92.7561C35.5741 92.3842 43.2385 95.9935 51.5239 101.783" stroke="#00A8E0" stroke-width="4.1068" stroke-miterlimit="10" stroke-linecap="round" stroke-linejoin="round"/>
<path d="M89.6899 114.146C89.5359 116.424 89.7425 118.695 90.2254 120.905C90.316 121.32 90.4907 121.788 90.7194 122.172C90.9481 122.557 91.3689 122.827 91.7596 122.959C95.0662 124.842 99.6255 123.846 102.182 120.971C104.739 118.097 105.468 113.812 104.292 110.088C103.973 109.289 103.654 108.49 103.142 107.806C102.264 106.767 100.84 106.21 99.4817 106.289C98.1779 106.285 96.7724 106.809 95.5353 107.441C93.1453 108.759 91.1587 110.93 90.0376 113.419" stroke="#00A8E0" stroke-width="4.1068" stroke-miterlimit="10" stroke-linecap="round" stroke-linejoin="round"/>
<path d="M36.1496 73.1506C36.2418 75.2295 37.3314 77.2352 38.8528 78.5675C40.4585 79.9538 42.55 80.5826 44.5749 80.5746C46.5155 80.5125 48.6896 79.531 49.5169 77.6855C49.7567 77.1265 49.9123 76.5135 49.9297 75.9307C50.1551 72.9863 48.4096 69.9658 45.8066 68.6526C43.2037 67.3394 39.7734 67.8716 37.7566 69.9045C36.6942 71.0051 36.0591 72.7361 36.7214 74.1114" stroke="#00A8E0" stroke-width="4.1068" stroke-miterlimit="10" stroke-linecap="round" stroke-linejoin="round"/>
<path d="M103.284 81.2846C98.5166 84.6421 92.8106 86.6847 87.049 87.1471C88.3263 96.6391 83.2052 106.66 74.8219 111.025C73.5308 111.741 72.0412 112.211 70.6596 112.513" stroke="#00A8E0" stroke-width="4.1068" stroke-miterlimit="10" stroke-linecap="round" stroke-linejoin="round"/>
<path d="M138.434 100.386C145.401 97.489 153.019 96.9105 160.469 96.224C163.737 95.9444 167.09 95.7187 170.358 95.439" stroke="#00A8E0" stroke-width="4.1068" stroke-miterlimit="10" stroke-linecap="round" stroke-linejoin="round"/>
<path d="M103.532 172.21C109.425 171.357 115.264 170.588 121.242 169.789C122.654 169.625 124.12 169.377 125.381 168.523C134.699 162.144 138.232 150.154 145.878 141.753C149.197 138.06 152.715 134.614 155.613 130.651C157.347 128.318 158.828 125.823 160.563 123.49C162.351 121.073 164.391 118.818 166.179 116.401C170.65 110.358 173.713 103.174 174.913 95.7469C135.158 45.2981 56.8688 27.5139 54.9583 27.7141C51.4978 28.1082 48.1041 29.139 44.6802 30.0317C36.0061 32.0713 27.1207 33.1437 18.3735 34.186" stroke="#00A8E0" stroke-width="4.1068" stroke-miterlimit="10" stroke-linecap="round" stroke-linejoin="round"/>
<path d="M67.3919 125.387C68.3128 120.987 69.4862 116.75 70.8819 112.537C76.0281 97.661 84.1617 83.8695 91.7664 69.9764C92.492 68.6598 93.2717 67.2591 94.3341 66.1585C95.9428 64.5766 97.9247 63.7094 99.9908 62.8962C106.873 59.9452 113.786 57.1323 120.669 54.1812C120.861 54.0668 121.083 54.0907 121.252 54.1986C121.42 54.3066 121.12 54.5893 121.006 54.3972" stroke="#00A8E0" stroke-width="4.1068" stroke-miterlimit="10" stroke-linecap="round" stroke-linejoin="round"/>
<path d="M49.093 110.204C54.1755 91.7226 59.4804 73.2654 65.4825 55.0178C65.9318 53.7616 66.351 52.3673 67.1069 51.1888C69.1348 48.2126 72.943 47.0912 76.4749 46.0302C82.157 44.2099 87.7184 41.837 92.8526 38.8336" stroke="#00A8E0" stroke-width="4.1068" stroke-miterlimit="10" stroke-linecap="round" stroke-linejoin="round"/>
<path d="M154.418 96.0259C148.431 86.839 139.699 79.3373 129.744 74.853" stroke="#00A8E0" stroke-width="4.1068" stroke-miterlimit="10" stroke-linecap="round" stroke-linejoin="round"/>
<path d="M154.752 99.21C155.154 104.695 147.852 126.267 141.095 134.764" stroke="#00A8E0" stroke-width="4.1068" stroke-miterlimit="10" stroke-linecap="round" stroke-linejoin="round"/>
<path d="M112.217 169.227C123.336 154.856 136.226 138.65 140.63 121.041" stroke="#00A8E0" stroke-width="4.1068" stroke-miterlimit="10" stroke-linecap="round" stroke-linejoin="round"/>
<path d="M40.5242 31.8805C49.64 32.8567 58.5891 35.3893 66.8967 39.2924" stroke="#00A8E0" stroke-width="4.1068" stroke-miterlimit="10" stroke-linecap="round" stroke-linejoin="round"/>
<path d="M113.375 60.5514C117.649 62.2234 121.635 64.8992 124.883 68.1705C124.708 67.702 124.48 67.3177 124.221 66.7952" stroke="#00A8E0" stroke-width="4.1068" stroke-miterlimit="10" stroke-linecap="round" stroke-linejoin="round"/>
</g>
</svg>
