<svg width="151" height="191" viewBox="0 0 151 191" fill="none" xmlns="http://www.w3.org/2000/svg">
<g opacity="0.1">
<path d="M52.7998 26.4382C51.5499 31.2805 51.9573 36.375 53.2568 41.2372C54.6002 46.0096 56.7021 50.5956 58.8917 55.0019C62.0413 61.5457 65.2347 67.9995 69.0507 74.0895C70.4601 76.4461 72.1369 78.7107 73.68 81.0213C76.9459 85.7302 80.1679 90.529 83.9666 94.8302C85.3694 96.5161 86.9498 98.066 88.5302 99.616C96.9736 107.852 107.636 114.278 118.37 118.959C110.655 125.877 104.839 134.834 101.761 144.792C98.6821 154.751 98.4292 165.532 100.853 175.615C78.2418 168.367 58.5138 154.068 40.9584 137.825C24.7115 122.777 9.69895 105.884 -0.155317 85.9437C6.54959 67.184 20.76 52.1976 34.486 37.9761C37.1869 35.177 39.8877 32.3779 42.5886 29.5787C45.112 26.9155 48.4376 23.9761 52.0239 24.8357C52.5171 24.9651 52.9665 25.1843 53.2383 25.5395C53.5101 25.8946 53.3829 26.6114 52.9817 26.7495" stroke="#00A8E0" stroke-width="4.1068" stroke-miterlimit="10" stroke-linecap="round" stroke-linejoin="round"/>
<path d="M59.0099 145.298C62.3001 147.904 65.5902 150.511 69.1457 152.802C73.2426 155.58 77.6485 157.952 81.7892 160.64" stroke="#00A8E0" stroke-width="4.1068" stroke-miterlimit="10" stroke-linecap="round" stroke-linejoin="round"/>
<path d="M68.2213 85.3679C58.4652 70.9277 50.577 55.396 49.3347 47.2237C45.8227 49.4045 40.7108 48.0231 38.7075 44.3753C27.8165 51.1898 19.1525 61.6499 13.9453 73.4628C15.3898 74.8352 18.2241 76.5519 18.8685 78.424C19.8328 81.0086 20.442 83.8649 20.1108 86.5963C19.7796 89.3276 18.1966 92.1159 15.748 93.2578C18.7946 98.4161 21.3568 104.339 24.4933 109.542C25.7207 111.587 26.9482 113.632 28.397 115.452C29.9818 117.449 31.9655 119.084 33.684 121.035C34.769 122.232 35.7663 123.609 36.7636 124.986" stroke="#00A8E0" stroke-width="4.1068" stroke-miterlimit="10" stroke-linecap="round" stroke-linejoin="round"/>
<path d="M83.1834 161.431C83.3874 159.416 84.9373 157.836 86.7196 157.148C88.5018 156.46 90.5602 156.574 92.441 156.824C96.1465 146.949 97.1557 135.758 102.794 126.937C101.425 124.044 100.945 120.694 101.405 117.469C96.1202 116.671 89.45 111.414 82.6243 103.967" stroke="#00A8E0" stroke-width="4.1068" stroke-miterlimit="10" stroke-linecap="round" stroke-linejoin="round"/>
<path d="M48.2096 83.2817C48.9047 81.1729 49.2402 78.8887 49.2623 76.5629C49.258 76.1157 49.2536 75.6685 49.0257 75.2235C48.8876 74.8223 48.572 74.557 48.2103 74.158C45.3235 71.6369 40.8055 71.5467 37.607 73.7693C34.4086 75.9918 32.8825 80.0318 33.1431 83.8307C33.1957 84.6353 33.428 85.5275 33.8378 86.2838C34.4757 87.4851 35.7361 88.3226 37.036 88.623C38.3359 88.9234 39.7652 88.7306 41.0585 88.3602C43.6453 87.6195 46.1335 85.9405 47.7668 83.7332" stroke="#00A8E0" stroke-width="4.1068" stroke-miterlimit="10" stroke-linecap="round" stroke-linejoin="round"/>
<path d="M91.2019 135.19C91.5396 133.129 90.937 130.944 89.7577 129.256C88.5347 127.658 86.6451 126.513 84.6284 126.086C82.7016 125.702 80.3801 126.127 79.2335 127.793C78.8805 128.288 78.6174 128.827 78.4442 129.411C77.622 132.236 78.549 135.581 80.7585 137.438C82.968 139.295 86.414 139.53 88.8583 137.941C90.1474 137.123 91.2501 135.547 90.8776 134.03" stroke="#00A8E0" stroke-width="4.1068" stroke-miterlimit="10" stroke-linecap="round" stroke-linejoin="round"/>
<path d="M27.6059 112.284C32.9965 110.13 38.9372 109.356 44.7594 110.194C45.6501 100.614 52.9461 92.046 62.0019 89.677C63.429 89.2606 64.9482 89.1117 66.4695 89.1863" stroke="#00A8E0" stroke-width="4.1068" stroke-miterlimit="10" stroke-linecap="round" stroke-linejoin="round"/>
<path d="M-2.39344 85.7419C-9.80509 87.0215 -17.3744 85.8876 -24.7639 84.8414C-28.0784 84.337 -31.303 83.8764 -34.6174 83.372" stroke="#00A8E0" stroke-width="4.1068" stroke-miterlimit="10" stroke-linecap="round" stroke-linejoin="round"/>
<path d="M47.6288 23.5816C41.675 23.0134 35.7673 22.5789 29.8135 22.0107C28.4259 21.89 26.9046 21.8153 25.5674 22.2756C15.0537 26.4924 8.98728 37.3298 -0.296823 43.8156C-4.3393 46.6278 -8.51768 49.2624 -12.1985 52.4736C-14.371 54.4178 -16.3638 56.4498 -18.6262 58.3502C-20.9325 60.3404 -23.3308 62.0633 -25.6371 64.0535C-31.3588 68.9393 -35.9036 75.2895 -38.7429 82.2493C-11.2098 140.301 61.1779 175.062 63.0587 175.312C66.5507 175.681 70.0362 175.379 73.6137 175.344C82.5576 175.257 91.3325 176.2 100.197 177.187" stroke="#00A8E0" stroke-width="4.1068" stroke-miterlimit="10" stroke-linecap="round" stroke-linejoin="round"/>
<path d="M72.3913 77.277C70.508 81.3652 68.3989 85.2319 66.11 89.011C57.8316 102.33 46.7649 114.065 36.2352 125.841C35.218 127.013 34.2008 128.186 32.9118 129.004C31.09 130.229 28.8124 130.564 26.6246 130.943C19.213 132.223 11.8912 133.546 4.47955 134.826C4.25595 134.828 4.03236 134.83 3.98633 134.697C3.85043 134.519 4.16173 134.337 4.29763 134.515" stroke="#00A8E0" stroke-width="4.1068" stroke-miterlimit="10" stroke-linecap="round" stroke-linejoin="round"/>
<path d="M86.8864 96.1437C77.7483 113.049 68.5643 129.82 58.6613 146.24C57.9575 147.455 57.1639 148.625 56.1445 149.574C53.4852 152.06 49.5065 152.233 45.8873 152.581C39.9445 153.131 33.9621 154.218 28.2537 155.883" stroke="#00A8E0" stroke-width="4.1068" stroke-miterlimit="10" stroke-linecap="round" stroke-linejoin="round"/>
<path d="M-19.0229 86.5298C-15.2554 96.8243 -8.41234 106.06 0.373172 112.683" stroke="#00A8E0" stroke-width="4.1068" stroke-miterlimit="10" stroke-linecap="round" stroke-linejoin="round"/>
<path d="M-18.5623 83.3051C-17.81 77.8862 -5.74534 58.4036 2.6422 51.7029" stroke="#00A8E0" stroke-width="4.1068" stroke-miterlimit="10" stroke-linecap="round" stroke-linejoin="round"/>
<path d="M38.47 24.565C24.4045 36.0616 8.29589 49.0092 0.04573 65.2347" stroke="#00A8E0" stroke-width="4.1068" stroke-miterlimit="10" stroke-linecap="round" stroke-linejoin="round"/>
<path d="M77.7635 174.364C69.1026 171.362 60.9198 166.925 53.6643 161.271" stroke="#00A8E0" stroke-width="4.1068" stroke-miterlimit="10" stroke-linecap="round" stroke-linejoin="round"/>
<path d="M13.2001 130.179C9.3729 127.533 6.1639 124.076 3.71121 120.209C3.80544 120.7 3.89966 121.191 3.99389 121.682" stroke="#00A8E0" stroke-width="4.1068" stroke-miterlimit="10" stroke-linecap="round" stroke-linejoin="round"/>
</g>
</svg>
