<svg width="118" height="211" viewBox="0 0 118 211" fill="none" xmlns="http://www.w3.org/2000/svg">
<g opacity="0.1">
<path d="M87.4029 187.281C88.5681 182.437 88.0422 177.277 86.5675 172.449C85.1349 167.711 82.8441 163.262 80.5534 158.813C77.2438 152.412 73.9343 146.011 69.9416 140.037C68.4398 137.758 66.7567 135.563 65.1643 133.326C61.8045 128.713 58.4024 124.009 54.4501 119.782C52.9295 118.174 51.4089 116.565 49.7491 115.131C41.1613 107.105 30.2817 101.028 19.491 96.5634C27.0261 89.5277 32.6547 80.2908 35.487 70.2595C38.3194 60.2281 38.3555 49.4023 35.5936 39.4373C58.404 46.0293 78.506 59.8376 96.4491 75.6431C113.083 90.2933 128.548 106.7 138.863 126.497C132.65 145.381 118.841 160.74 105.546 175.309C102.915 178.188 100.284 181.067 97.6525 183.945C95.1605 186.649 91.9432 189.69 88.2951 188.961C87.8059 188.858 87.3651 188.622 87.1057 188.302C86.8041 187.89 86.8652 187.311 87.2763 187.009" stroke="#00A8E0" stroke-width="4.1068" stroke-miterlimit="10" stroke-linecap="round" stroke-linejoin="round"/>
<path d="M78.1701 68.597C74.7959 66.0862 71.4216 63.5753 67.8597 61.3724C63.6398 58.7036 59.1839 56.4755 54.964 53.8066" stroke="#00A8E0" stroke-width="4.1068" stroke-miterlimit="10" stroke-linecap="round" stroke-linejoin="round"/>
<path d="M70.5279 128.735C80.6434 142.889 88.8909 158.242 90.4526 166.339C93.9168 164.066 99.0262 165.328 101.119 168.876C111.831 161.796 120.228 151.161 125.087 139.083C123.602 137.789 120.698 136.052 119.945 134.196C118.945 131.573 118.217 128.824 118.474 126.057C118.731 123.291 120.196 120.513 122.602 119.284C119.345 114.181 116.645 108.379 113.479 103.234C112.237 101.275 110.952 99.2259 109.438 97.3938C107.748 95.4225 105.781 93.8012 104.043 91.9628C102.915 90.7231 101.877 89.4412 100.839 88.1593" stroke="#00A8E0" stroke-width="4.1068" stroke-miterlimit="10" stroke-linecap="round" stroke-linejoin="round"/>
<path d="M53.5511 53.1405C53.3616 55.1037 51.928 56.7634 50.0726 57.5165C48.3077 58.2274 46.2054 58.213 44.3329 57.9814C40.83 67.9939 40.1592 79.115 34.7605 88.1347C36.2012 90.9937 36.7352 94.2747 36.4174 97.6212C41.7208 98.352 48.6021 103.422 55.5113 110.685" stroke="#00A8E0" stroke-width="4.1068" stroke-miterlimit="10" stroke-linecap="round" stroke-linejoin="round"/>
<path d="M90.571 130.328C89.9282 132.502 89.684 134.822 89.7118 137.015C89.6992 137.462 89.7288 137.999 89.8976 138.362C90.0663 138.725 90.368 139.136 90.6759 139.323C93.6031 141.822 98.1704 141.682 101.32 139.444C104.428 137.115 105.973 133.088 105.5 129.227C105.435 128.375 105.236 127.474 104.808 126.791C104.127 125.564 102.895 124.814 101.56 124.552C100.226 124.291 98.8781 124.477 97.5244 124.886C94.9077 125.663 92.5316 127.43 90.9462 129.712" stroke="#00A8E0" stroke-width="4.1068" stroke-miterlimit="10" stroke-linecap="round" stroke-linejoin="round"/>
<path d="M46.1879 79.5083C45.95 81.6043 46.5154 83.7677 47.8125 85.37C49.1096 86.9724 51.0477 88.0559 53.0046 88.4689C54.9193 88.7912 57.2155 88.2742 58.3349 86.6503C58.6617 86.1674 58.9463 85.5938 59.098 84.9717C59.8503 82.0848 58.7785 78.8335 56.503 77.0246C54.2274 75.2158 50.7418 75.073 48.4141 76.7076C47.1807 77.6124 46.1098 79.1034 46.5128 80.6806" stroke="#00A8E0" stroke-width="4.1068" stroke-miterlimit="10" stroke-linecap="round" stroke-linejoin="round"/>
<path d="M110.461 100.778C105.16 103.134 99.1846 104.04 93.4342 103.297C92.8074 112.853 85.7597 121.647 76.7372 124.302C75.3835 124.711 73.8548 124.981 72.2902 124.937" stroke="#00A8E0" stroke-width="4.1068" stroke-miterlimit="10" stroke-linecap="round" stroke-linejoin="round"/>
<path d="M92.7403 189.981C98.6362 190.326 104.665 190.719 110.561 191.064C112.035 191.151 113.509 191.237 114.778 190.646C125.192 186.241 131.052 175.132 140.055 168.406C143.985 165.474 148.132 162.772 151.761 159.43C153.92 157.432 155.813 155.338 158.014 153.432C160.263 151.392 162.64 149.625 164.889 147.585C170.489 142.553 174.876 136.1 177.578 129.107C148.589 71.7861 75.291 38.9435 73.4185 38.7119C69.8906 38.4784 66.3924 38.7827 62.9427 38.954C54.0316 39.2402 45.1941 38.4995 36.2659 37.8009" stroke="#00A8E0" stroke-width="4.1068" stroke-miterlimit="10" stroke-linecap="round" stroke-linejoin="round"/>
<path d="M66.5377 136.989C68.264 132.877 70.2982 128.952 72.5074 125.167C80.4484 111.655 91.1668 99.6089 101.347 87.5921C102.321 86.3668 103.338 85.2321 104.662 84.2851C106.53 83.085 108.735 82.6101 110.85 82.1775C118.228 80.7297 125.473 79.2335 132.851 77.7857C133.032 77.7013 133.256 77.7076 133.34 77.8889C133.425 78.0703 133.062 78.239 133.111 78.1062" stroke="#00A8E0" stroke-width="4.1068" stroke-miterlimit="10" stroke-linecap="round" stroke-linejoin="round"/>
<path d="M51.5336 118.492C60.2036 101.333 69.0486 84.3123 78.5094 67.6671C79.1693 66.4777 79.9197 65.2461 80.8874 64.2443C83.4638 61.722 87.409 61.4303 91.0885 61.0417C97.058 60.3596 102.865 59.0913 108.6 57.1947" stroke="#00A8E0" stroke-width="4.1068" stroke-miterlimit="10" stroke-linecap="round" stroke-linejoin="round"/>
<path d="M101.767 188.759C115.524 176.843 131.288 163.551 139.178 147.085" stroke="#00A8E0" stroke-width="4.1068" stroke-miterlimit="10" stroke-linecap="round" stroke-linejoin="round"/>
<path d="M58.5739 39.9944C67.2641 42.789 75.6446 47.0513 83.0089 52.4482" stroke="#00A8E0" stroke-width="4.1068" stroke-miterlimit="10" stroke-linecap="round" stroke-linejoin="round"/>
</g>
</svg>
