<svg width="116" height="143" viewBox="0 0 116 143" fill="none" xmlns="http://www.w3.org/2000/svg">
<g opacity="0.1">
<path d="M46.2 139.222C45.8 134.222 43.6 129.522 40.7 125.522C37.8 121.522 34.2 117.922 30.7 114.522C25.5 109.522 20.3 104.522 14.6 100.122C12.4 98.4217 10.2 96.8217 7.90002 95.2217C3.20002 91.9217 -1.5 88.5217 -6.5 85.8217C-8.4 84.7217 -10.4 83.8217 -12.5 82.8217C-23.2 78.0217 -35.5 75.6217 -47.1 74.8217C-42.2 65.7217 -39.8 55.2217 -40.3 44.8217C-40.8 34.4217 -44.2 24.1217 -50 15.5217C-26.3 14.5217 -2.79999 21.2217 19.2 30.5217C39.6 39.1217 59.5 49.8217 75.6 65.2217C75.7 85.1217 67.5 104.122 59.5 122.122C57.9 125.722 56.3 129.222 54.8 132.822C53.3 136.222 51.2 140.122 47.6 140.522C47.1 140.622 46.6 140.522 46.2 140.322C45.8 140.022 45.7 139.422 46 139.022" stroke="#00A8E0" stroke-width="4.1068" stroke-miterlimit="10" stroke-linecap="round" stroke-linejoin="round"/>
<path d="M-0.399994 29.7216C-4.39999 28.4216 -8.4 27.1216 -12.5 26.1216C-17.3 24.9216 -22.3 24.2216 -27.1 23.1216" stroke="#00A8E0" stroke-width="4.1068" stroke-miterlimit="10" stroke-linecap="round" stroke-linejoin="round"/>
<path d="M11.6 89.2216C25.7 99.4216 38.4 111.322 42.4 118.522C44.9 115.222 50.2 114.822 53.3 117.522C61.2 107.422 65.8 94.6216 66.6 81.7216C64.8 80.9216 61.5 80.2216 60.2 78.7216C58.4 76.6216 56.8 74.2216 56.2 71.4216C55.6 68.6216 56.1 65.6216 58 63.6216C53.3 59.8216 48.9 55.1216 44.2 51.3216C42.4 49.8216 40.5 48.3216 38.5 47.1216C36.3 45.8216 33.9 44.9216 31.6 43.7216C30.1 42.9216 28.7 42.0216 27.3 41.1216" stroke="#00A8E0" stroke-width="4.1068" stroke-miterlimit="10" stroke-linecap="round" stroke-linejoin="round"/>
<path d="M31.1 84.2215C31.2 86.5215 31.7 88.7215 32.4 90.8215C32.6 91.2215 32.7 91.7215 33 92.0215C33.3 92.3215 33.7 92.5215 34.1 92.7215C37.7 94.1215 42 92.6215 44.2 89.4215C46.4 86.3215 46.5 81.9215 44.9 78.4215C44.5 77.6215 44.1 76.9215 43.5 76.3215C42.5 75.4215 41 75.1215 39.7 75.2215C38.3 75.4215 37.1 76.0215 36 76.8215C33.8 78.4215 32.1 80.8215 31.3 83.4215" stroke="#00A8E0" stroke-width="4.1068" stroke-miterlimit="10" stroke-linecap="round" stroke-linejoin="round"/>
<path d="M40.5 49.9219C36.2 53.8219 30.8 56.5219 25.2 57.7219C27.6 67.0219 23.8 77.5218 16 82.9218C14.8 83.7218 13.4 84.4218 12 84.9218" stroke="#00A8E0" stroke-width="4.1068" stroke-miterlimit="10" stroke-linecap="round" stroke-linejoin="round"/>
<path d="M77.8 64.6218C84.3 60.9218 91.8 59.3218 99.2 57.8218C102.4 57.1218 105.7 56.4218 108.9 55.8218" stroke="#00A8E0" stroke-width="4.1068" stroke-miterlimit="10" stroke-linecap="round" stroke-linejoin="round"/>
<path d="M52.1 140.122C57.8 138.622 63.6 137.022 69.3 135.522C70.7 135.122 72.1 134.722 73.2 133.822C81.7 126.322 83.6 113.922 90.1 104.722C92.9 100.722 95.9 96.8216 98.3 92.5216C99.7 90.0216 100.9 87.3216 102.3 84.8216C103.8 82.2216 105.5 79.7216 107 77.1216C110.7 70.5216 112.8 63.1216 113.1 55.5216C67.4 10.4216 -12.6 2.52161 -14.4 3.02161C-17.8 3.92161 -21 5.32161 -24.3 6.52162C-32.6 9.62161 -41.3 11.8216 -49.9 13.9216" stroke="#00A8E0" stroke-width="4.1068" stroke-miterlimit="10" stroke-linecap="round" stroke-linejoin="round"/>
<path d="M10.4 98.2217C10.7 93.8217 11.4 89.4217 12.3 85.0217C15.5 69.6217 21.9 54.9217 27.7 40.2217C28.3 38.8217 28.8 37.3217 29.8 36.1217C31.1 34.4217 33.1 33.2217 35 32.1217C41.5 28.4217 48 24.6217 54.5 20.9217C54.7 20.8217 54.9 20.7217 55 20.8217C55.2 20.9217 54.9 21.2217 54.8 21.1217" stroke="#00A8E0" stroke-width="4.1068" stroke-miterlimit="10" stroke-linecap="round" stroke-linejoin="round"/>
<path d="M-9.69998 85.5217C-6.89998 66.5217 -3.99999 47.6217 -0.299988 28.7217C1.2219e-05 27.3217 0.200024 25.9217 0.900024 24.7217C2.60002 21.5217 6.2 19.9217 9.5 18.4217C14.9 15.9217 20.1 12.8217 24.9 9.22168" stroke="#00A8E0" stroke-width="4.1068" stroke-miterlimit="10" stroke-linecap="round" stroke-linejoin="round"/>
<path d="M93 58.2218C85.9 49.8218 76.3 43.5218 65.8 40.3218" stroke="#00A8E0" stroke-width="4.1068" stroke-miterlimit="10" stroke-linecap="round" stroke-linejoin="round"/>
<path d="M93.8 61.3218C94.9 66.7218 90.3 89.1218 84.7 98.3218" stroke="#00A8E0" stroke-width="4.1068" stroke-miterlimit="10" stroke-linecap="round" stroke-linejoin="round"/>
<path d="M60.3 136.122C69.6 120.522 80.3 102.822 82.5 84.7217" stroke="#00A8E0" stroke-width="4.1068" stroke-miterlimit="10" stroke-linecap="round" stroke-linejoin="round"/>
<path d="M-28 8.82141C-18.8 8.72141 -9.59999 10.1214 -0.899994 12.9214" stroke="#00A8E0" stroke-width="4.1068" stroke-miterlimit="10" stroke-linecap="round" stroke-linejoin="round"/>
<path d="M47.9 28.2217C52.4 29.4217 56.6 31.5217 60.2 34.3217C59.9 33.9217 59.7 33.5217 59.4 33.0217" stroke="#00A8E0" stroke-width="4.1068" stroke-miterlimit="10" stroke-linecap="round" stroke-linejoin="round"/>
</g>
</svg>
