<svg width="128" height="191" viewBox="0 0 128 191" fill="none" xmlns="http://www.w3.org/2000/svg">
<g opacity="0.1">
<path d="M109.6 26.5236C108.35 31.3659 108.758 36.4605 110.057 41.3227C111.401 46.095 113.503 50.6811 115.692 55.0874C118.842 61.6311 122.035 68.0849 125.851 74.1749C127.261 76.5316 128.937 78.7961 130.48 81.1067C133.746 85.8157 136.968 90.6144 140.767 94.9157C142.17 96.6015 143.75 98.1515 145.331 99.7014C153.774 107.938 164.436 114.364 175.171 119.045C167.456 125.962 161.64 134.919 158.561 144.878C155.483 154.836 155.23 165.617 157.653 175.701C135.042 168.452 115.314 154.154 97.7589 137.911C81.512 122.863 66.4995 105.969 56.6452 86.0291C63.3501 67.2695 77.5606 52.283 91.2865 38.0616C93.9874 35.2624 96.6883 32.4633 99.3892 29.6642C101.912 27.0009 105.238 24.0616 108.824 24.9211C109.318 25.0505 109.767 25.2698 110.039 25.6249C110.311 25.98 110.183 26.6969 109.782 26.8349" stroke="#00A8E0" stroke-width="4.1068" stroke-miterlimit="10" stroke-linecap="round" stroke-linejoin="round"/>
<path d="M115.81 145.383C119.101 147.99 122.391 150.596 125.946 152.887C130.043 155.665 134.449 158.037 138.59 160.725" stroke="#00A8E0" stroke-width="4.1068" stroke-miterlimit="10" stroke-linecap="round" stroke-linejoin="round"/>
<path d="M125.022 85.4534C115.266 71.0132 107.377 55.4814 106.135 47.3091C102.623 49.49 97.5113 48.1086 95.5079 44.4607C84.617 51.2752 75.953 61.7354 70.7458 73.5483C72.1903 74.9207 75.0246 76.6373 75.6689 78.5094C76.6333 81.094 77.2424 83.9504 76.9112 86.6817C76.58 89.4131 74.9971 92.2013 72.5484 93.3432C75.5951 98.5015 78.1572 104.425 81.2937 109.627C82.5212 111.672 83.7486 113.718 85.1975 115.537C86.7822 117.534 88.766 119.17 90.4844 121.121C91.5694 122.318 92.5668 123.695 93.5641 125.071" stroke="#00A8E0" stroke-width="4.1068" stroke-miterlimit="10" stroke-linecap="round" stroke-linejoin="round"/>
<path d="M139.984 161.516C140.188 159.502 141.738 157.922 143.52 157.233C145.302 156.545 147.361 156.659 149.242 156.909C152.947 147.034 153.956 135.843 159.595 127.023C158.225 124.129 157.745 120.779 158.206 117.555C152.921 116.757 146.251 111.499 139.425 104.052" stroke="#00A8E0" stroke-width="4.1068" stroke-miterlimit="10" stroke-linecap="round" stroke-linejoin="round"/>
<path d="M105.01 83.3671C105.705 81.2583 106.041 78.9742 106.063 76.6483C106.058 76.2011 106.054 75.7539 105.826 75.3089C105.688 74.9078 105.372 74.6425 105.011 74.2435C102.124 71.7223 97.606 71.6321 94.4076 73.8547C91.2091 76.0773 89.6831 80.1172 89.9436 83.9162C89.9962 84.7207 90.2285 85.6129 90.6384 86.3692C91.2762 87.5705 92.5366 88.408 93.8365 88.7084C95.1364 89.0089 96.5657 88.8161 97.8591 88.4457C100.446 87.7049 102.934 86.026 104.567 83.8187" stroke="#00A8E0" stroke-width="4.1068" stroke-miterlimit="10" stroke-linecap="round" stroke-linejoin="round"/>
<path d="M84.4064 112.369C89.7969 110.215 95.7376 109.442 101.56 110.279C102.451 100.7 109.747 92.1315 118.802 89.7625C120.229 89.3461 121.749 89.1972 123.27 89.2718" stroke="#00A8E0" stroke-width="4.1068" stroke-miterlimit="10" stroke-linecap="round" stroke-linejoin="round"/>
<path d="M54.4071 85.8273C46.9955 87.107 39.4262 85.9731 32.0366 84.9269C28.7222 84.4225 25.4976 83.9619 22.1832 83.4574" stroke="#00A8E0" stroke-width="4.1068" stroke-miterlimit="10" stroke-linecap="round" stroke-linejoin="round"/>
<path d="M104.429 23.667C98.4755 23.0988 92.5678 22.6643 86.614 22.0961C85.2264 21.9755 83.7051 21.9008 82.3679 22.361C71.8542 26.5779 65.7878 37.4153 56.5037 43.901C52.4612 46.7132 48.2828 49.3478 44.602 52.559C42.4295 54.5033 40.4367 56.5352 38.1743 58.4356C35.868 60.4259 33.4697 62.1487 31.1634 64.139C25.4417 69.0248 20.8969 75.375 18.0576 82.3348C45.5907 140.386 117.978 175.148 119.859 175.398C123.351 175.766 126.837 175.464 130.414 175.429C139.358 175.342 148.133 176.286 156.998 177.273" stroke="#00A8E0" stroke-width="4.1068" stroke-miterlimit="10" stroke-linecap="round" stroke-linejoin="round"/>
<path d="M129.192 77.3625C127.309 81.4506 125.199 85.3174 122.911 89.0964C114.632 102.415 103.565 114.151 93.0358 125.926C92.0185 127.099 91.0013 128.272 89.7123 129.089C87.8906 130.314 85.6129 130.65 83.4252 131.029C76.0135 132.308 68.6917 133.632 61.2801 134.911C61.0565 134.914 60.8329 134.916 60.7869 134.782C60.651 134.605 60.9623 134.423 61.0982 134.6" stroke="#00A8E0" stroke-width="4.1068" stroke-miterlimit="10" stroke-linecap="round" stroke-linejoin="round"/>
<path d="M143.687 96.2291C134.549 113.134 125.365 129.905 115.462 146.326C114.758 147.54 113.964 148.711 112.945 149.66C110.286 152.145 106.307 152.318 102.688 152.667C96.745 153.216 90.7626 154.303 85.0542 155.969" stroke="#00A8E0" stroke-width="4.1068" stroke-miterlimit="10" stroke-linecap="round" stroke-linejoin="round"/>
<path d="M37.7776 86.6152C41.5451 96.9097 48.3882 106.146 57.1737 112.769" stroke="#00A8E0" stroke-width="4.1068" stroke-miterlimit="10" stroke-linecap="round" stroke-linejoin="round"/>
<path d="M38.2383 83.3905C38.9906 77.9717 51.0552 58.4891 59.4428 51.7884" stroke="#00A8E0" stroke-width="4.1068" stroke-miterlimit="10" stroke-linecap="round" stroke-linejoin="round"/>
<path d="M95.2706 24.6504C81.2051 36.147 65.0965 49.0947 56.8463 65.3201" stroke="#00A8E0" stroke-width="4.1068" stroke-miterlimit="10" stroke-linecap="round" stroke-linejoin="round"/>
<path d="M134.564 174.45C125.903 171.448 117.72 167.01 110.465 161.356" stroke="#00A8E0" stroke-width="4.1068" stroke-miterlimit="10" stroke-linecap="round" stroke-linejoin="round"/>
<path d="M70.0007 130.265C66.1734 127.619 62.9644 124.162 60.5117 120.294C60.6059 120.785 60.7002 121.277 60.7944 121.768" stroke="#00A8E0" stroke-width="4.1068" stroke-miterlimit="10" stroke-linecap="round" stroke-linejoin="round"/>
</g>
</svg>
